<?xml version="1.0" encoding="UTF-8"?><svg id="light_icons" xmlns="http://www.w3.org/2000/svg" xmlns:xlink="http://www.w3.org/1999/xlink" viewBox="0 0 1600 226"><defs><linearGradient id="linear-gradient" x1="-255.51" y1="478.47" x2="-264.61" y2="481.54" gradientTransform="translate(1613.31 -630.25) scale(1.56)" gradientUnits="userSpaceOnUse"><stop offset="0" stop-color="#000" stop-opacity=".3"/><stop offset=".07" stop-color="#000" stop-opacity=".2"/><stop offset=".32" stop-color="#000" stop-opacity=".1"/><stop offset=".62" stop-color="#000" stop-opacity=".05"/><stop offset="1" stop-color="#000" stop-opacity="0"/></linearGradient></defs><g id="react_icon"><circle cx="105" cy="113" r="20" style="fill:#e1e1e0; stroke-width:0px;"/><ellipse cx="105" cy="113" rx="100" ry="45" style="fill:none; stroke:#e1e1e0; stroke-miterlimit:10; stroke-width:8px;"/><ellipse cx="105" cy="113" rx="45" ry="100" transform="translate(-42.43 67.64) rotate(-30)" style="fill:none; stroke:#e1e1e0; stroke-miterlimit:10; stroke-width:8px;"/><ellipse cx="105" cy="113" rx="100" ry="45" transform="translate(-45.36 147.43) rotate(-60)" style="fill:none; stroke:#e1e1e0; stroke-miterlimit:10; stroke-width:8px;"/></g><path id="dotnet_icon" d="m553.31,13v200h200V13h-200Zm39.29,126.36c-.99.94-2.2,1.41-3.64,1.41s-2.62-.47-3.61-1.41c-.99-.97-1.48-2.11-1.48-3.44s.49-2.51,1.48-3.48c.99-.97,2.19-1.45,3.61-1.45s2.65.48,3.64,1.45c1.01.97,1.52,2.13,1.52,3.48s-.51,2.48-1.52,3.44Zm52.89.62h-9.19l-24.22-38.21c-.61-.97-1.12-1.97-1.52-3.01h-.21c.19,1.11.28,3.49.28,7.14v34.07h-8.13v-51.98h9.79l23.4,37.3c.99,1.55,1.63,2.61,1.91,3.19h.14c-.24-1.38-.35-3.71-.35-7v-33.49h8.1v51.98Zm39.6,0h-28.46v-51.98h27.33v7.32h-18.91v14.72h17.43v7.29h-17.43v15.37h20.05v7.29Zm40.45-44.66h-14.57v44.66h-8.41v-44.66h-14.53v-7.32h37.51v7.32Z" style="fill:#e1e1e0; stroke-width:0px;"/><g id="go_icon"><path d="m1384.19,95.8c-.45,0-.57-.23-.34-.57l2.39-3.07c.23-.34.8-.57,1.25-.57h40.57c.45,0,.57.34.34.68l-1.93,2.95c-.23.34-.8.68-1.14.68l-41.14-.11Z" style="fill:#e1e1e0; stroke-width:0px;"/><path d="m1367.03,106.26c-.45,0-.57-.23-.34-.57l2.39-3.07c.23-.34.8-.57,1.25-.57h51.83c.45,0,.68.34.57.68l-.91,2.73c-.11.45-.57.68-1.02.68l-53.76.11Z" style="fill:#e1e1e0; stroke-width:0px;"/><path d="m1394.53,116.71c-.45,0-.57-.34-.34-.68l1.59-2.84c.23-.34.68-.68,1.14-.68h22.73c.45,0,.68.34.68.8l-.23,2.73c0,.45-.45.8-.8.8l-24.78-.11Z" style="fill:#e1e1e0; stroke-width:0px;"/><g id="CXHf1q"><path d="m1512.5,93.76c-7.16,1.82-12.05,3.18-19.09,5-1.7.45-1.82.57-3.3-1.14-1.7-1.93-2.95-3.18-5.34-4.32-7.16-3.52-14.09-2.5-20.57,1.7-7.73,5-11.71,12.39-11.59,21.59.11,9.09,6.36,16.59,15.34,17.84,7.73,1.02,14.21-1.7,19.32-7.5,1.02-1.25,1.93-2.61,3.07-4.21h-21.93c-2.39,0-2.95-1.48-2.16-3.41,1.48-3.52,4.21-9.43,5.8-12.39.34-.68,1.14-1.82,2.84-1.82h41.37c-.23,3.07-.23,6.14-.68,9.21-1.25,8.18-4.32,15.68-9.32,22.28-8.18,10.8-18.87,17.5-32.39,19.32-11.14,1.48-21.48-.68-30.57-7.5-8.41-6.36-13.18-14.77-14.43-25.23-1.48-12.39,2.16-23.53,9.66-33.3,8.07-10.57,18.75-17.28,31.82-19.66,10.68-1.93,20.91-.68,30.12,5.57,6.02,3.98,10.34,9.43,13.18,16.03.68,1.02.23,1.59-1.14,1.93Z" style="fill:#e1e1e0; stroke-width:0px;"/><path d="m1550.12,156.61c-10.34-.23-19.78-3.18-27.73-10-6.71-5.8-10.91-13.18-12.27-21.93-2.05-12.84,1.48-24.21,9.21-34.32,8.3-10.91,18.3-16.59,31.82-18.98,11.59-2.05,22.5-.91,32.39,5.8,8.98,6.14,14.55,14.43,16.03,25.34,1.93,15.34-2.5,27.84-13.07,38.53-7.5,7.61-16.71,12.39-27.28,14.55-3.07.57-6.14.68-9.09,1.02Zm27.05-45.92c-.11-1.48-.11-2.61-.34-3.75-2.05-11.25-12.39-17.62-23.19-15.12-10.57,2.39-17.39,9.09-19.89,19.78-2.05,8.86,2.27,17.84,10.46,21.48,6.25,2.73,12.5,2.39,18.53-.68,8.98-4.66,13.87-11.93,14.43-21.71Z" style="fill:#e1e1e0; stroke-width:0px;"/></g></g><g id="typescript_icon"><path d="m457.13,13h-160.94c-10.79,0-19.53,8.74-19.53,19.53v160.94c0,10.79,8.74,19.53,19.53,19.53h160.94c10.79,0,19.53-8.74,19.53-19.53V32.53c0-10.79-8.74-19.53-19.53-19.53Zm-64.45,110.97h-25.09v71.45h-19.87v-71.45h-24.96v-16.05h69.92v16.05Zm64.8,58.78c-1.85,3.32-4.37,6.01-7.55,8.07-3.18,2.06-6.88,3.53-11.1,4.43-4.22.9-8.67,1.34-13.36,1.34s-9.38-.41-13.72-1.22-8.1-2.04-11.28-3.67v-19.56h0c3.55,2.97,7.4,5.2,11.55,6.69,4.16,1.49,8.36,2.23,12.59,2.23,2.49,0,4.66-.22,6.51-.67,1.85-.45,3.4-1.07,4.65-1.86,1.24-.79,2.17-1.73,2.78-2.81.61-1.08.92-2.25.92-3.51,0-1.71-.49-3.24-1.47-4.58-.98-1.34-2.31-2.59-4-3.73-1.69-1.14-3.7-2.24-6.02-3.3-2.32-1.06-4.83-2.14-7.52-3.24-6.85-2.85-11.95-6.34-15.31-10.45-3.36-4.11-5.04-9.09-5.04-14.91,0-4.56.92-8.48,2.75-11.76,1.83-3.28,4.33-5.98,7.49-8.1,3.16-2.12,6.82-3.68,10.97-4.67,4.16-1,8.56-1.5,13.21-1.5s8.61.27,12.14.82c3.53.55,6.78,1.4,9.75,2.54v18.27c-1.47-1.02-3.07-1.91-4.8-2.69-1.73-.77-3.52-1.42-5.35-1.92-1.83-.51-3.66-.89-5.47-1.13-1.81-.24-3.54-.37-5.17-.37-2.24,0-4.28.21-6.11.64-1.83.43-3.38,1.03-4.65,1.8-1.26.77-2.24,1.7-2.93,2.78-.69,1.08-1.04,2.29-1.04,3.64,0,1.47.39,2.78,1.16,3.94.77,1.16,1.87,2.26,3.3,3.3,1.43,1.04,3.16,2.06,5.2,3.06,2.04,1,4.34,2.03,6.91,3.09,3.51,1.47,6.65,3.02,9.45,4.67,2.79,1.65,5.19,3.51,7.18,5.59,2,2.08,3.53,4.45,4.59,7.12s1.59,5.77,1.59,9.32c0,4.89-.93,8.99-2.78,12.31Z" style="fill:#e1e1e0; stroke-width:0px;"/></g><g id="azure_icon"><path d="m1173.3,18.78h59.18l-61.44,182.03c-1.29,3.84-4.89,6.42-8.94,6.42h-46.06c-5.2,0-9.42-4.22-9.42-9.42,0-1.02.17-2.04.49-3.01l57.24-169.6c1.29-3.84,4.89-6.42,8.94-6.42h0Z" style="fill:#e1e1e0; stroke-width:0px;"/><path d="m1259.3,140.87h-93.85c-2.4,0-4.35,1.94-4.35,4.34,0,1.21.5,2.36,1.38,3.18l60.3,56.29c1.76,1.64,4.07,2.55,6.47,2.55h53.14l-23.1-66.36Z" style="fill:#e1e1e0; stroke-width:0px;"/><path d="m1173.3,18.78c-4.1-.02-7.73,2.64-8.96,6.54l-57.15,169.32c-1.75,4.89.79,10.28,5.68,12.03,1.03.37,2.11.56,3.2.55h47.25c3.58-.64,6.54-3.16,7.75-6.59l11.4-33.59,40.71,37.97c1.71,1.41,3.85,2.19,6.06,2.21h52.94l-23.22-66.36-67.69.02,41.43-122.11h-59.4Z" style="fill:url(#linear-gradient); stroke-width:0px;"/><path d="m1248.89,25.19c-1.29-3.83-4.88-6.41-8.93-6.41h-65.96c4.04,0,7.63,2.58,8.93,6.41l57.24,169.6c1.66,4.93-.98,10.28-5.91,11.94-.97.33-1.99.49-3.01.49h65.96c5.2,0,9.42-4.22,9.42-9.43,0-1.02-.17-2.04-.49-3.01l-57.24-169.6Z" style="fill:#e1e1e0; stroke-width:0px;"/></g><g id="csharp_icon"><path d="m1029.96,66.69c0-3.78-.81-7.12-2.44-9.99-1.61-2.82-4.01-5.18-7.24-7.05-26.63-15.35-53.28-30.66-79.89-46.03-7.18-4.14-14.13-3.99-21.26.21-10.6,6.25-63.66,36.65-79.47,45.81-6.51,3.77-9.68,9.54-9.68,17.04-.01,30.87,0,61.75-.01,92.62,0,3.7.78,6.97,2.34,9.79,1.61,2.9,4.04,5.33,7.34,7.24,15.81,9.16,68.88,39.55,79.47,45.81,7.13,4.2,14.08,4.35,21.26.21,26.62-15.37,53.27-30.67,79.9-46.03,3.3-1.91,5.74-4.34,7.34-7.24,1.56-2.82,2.34-6.1,2.34-9.8,0,0,0-61.73-.01-92.61Zm-98.64,120.64h-.83c-27.59,0-51.67-15.02-64.49-37.34-6.26-10.9-9.85-23.53-9.85-37,0-41.06,33.28-74.34,74.34-74.34,27.41,0,51.35,14.84,64.24,36.92h0s.13.21.13.21c-.04-.07-.09-.14-.13-.21l-32.35,18.63c-6.37-10.79-18.06-18.08-31.47-18.23h-.42c-20.44,0-37.02,16.57-37.02,37.02,0,6.69,1.78,12.95,4.88,18.37,6.38,11.14,18.38,18.65,32.14,18.65s25.91-7.61,32.26-18.87l-.15.27,32.31,18.72c-12.72,22.01-36.4,36.9-63.58,37.2Zm83-79.91h-10.54v10.54h10.54v5.27h-10.54v10.54h-5.27v-10.54h-10.54v10.54h-5.27v-10.54h-10.54v-5.27h10.54v-10.54h-10.54v-5.27h10.54v-10.54h5.27v10.54h10.54v-10.54h5.27v10.54h10.54v5.27Z" style="fill:#e1e1e0; stroke-width:0px;"/><rect x="987.96" y="107.43" width="10.54" height="10.54" style="fill:#e1e1e0; stroke-width:0px;"/></g></svg>