<?xml version="1.0" encoding="utf-8"?>
<!-- Generator: Adobe Illustrator 28.0.0, SVG Export Plug-In . SVG Version: 6.00 Build 0)  -->
<svg version="1.1" id="Layer_1" xmlns="http://www.w3.org/2000/svg" xmlns:xlink="http://www.w3.org/1999/xlink" x="0px" y="0px"
	 viewBox="0 0 24 24" style="enable-background:new 0 0 24 24;" xml:space="preserve">
<style type="text/css">
	.st0{fill:#FFFFFF;}
</style>
<path class="st0" d="M9.8,10.2c-1.1,0-2-0.4-2.8-1.2C6.1,8.3,5.8,7.3,5.8,6.2s0.4-2,1.2-2.8s1.7-1.2,2.8-1.2s2,0.4,2.8,1.2
	s1.2,1.7,1.2,2.8s-0.4,2-1.2,2.8C11.8,9.9,10.9,10.2,9.8,10.2z M9.8,8.2c0.6,0,1-0.2,1.4-0.6c0.4-0.4,0.6-0.9,0.6-1.4
	s-0.2-1-0.6-1.4c-0.4-0.4-0.9-0.6-1.4-0.6s-1,0.2-1.4,0.6C7.9,5.2,7.8,5.7,7.8,6.2s0.2,1,0.6,1.4C8.7,8.1,9.2,8.2,9.8,8.2z
	 M20.9,21.8l-3.2-3.2c-0.4,0.2-0.7,0.4-1.1,0.5c-0.4,0.1-0.8,0.2-1.3,0.2c-1.2,0-2.3-0.4-3.2-1.3s-1.3-1.9-1.3-3.2s0.4-2.3,1.3-3.2
	s1.9-1.3,3.2-1.3s2.3,0.4,3.2,1.3s1.3,1.9,1.3,3.2c0,0.4-0.1,0.9-0.2,1.3c-0.1,0.4-0.3,0.8-0.5,1.1l3.2,3.2L20.9,21.8z M15.2,17.2
	c0.7,0,1.3-0.2,1.8-0.7c0.5-0.5,0.7-1.1,0.7-1.8S17.5,13.5,17,13c-0.5-0.5-1.1-0.7-1.8-0.7S14,12.5,13.5,13
	c-0.5,0.5-0.7,1.1-0.7,1.8s0.2,1.3,0.7,1.8C14,17,14.6,17.2,15.2,17.2z M1.7,18.2v-2.8c0-0.6,0.1-1.1,0.4-1.6
	c0.3-0.5,0.7-0.8,1.2-1.1c0.8-0.4,1.8-0.8,2.9-1.1s2.3-0.4,3.5-0.4c-0.2,0.3-0.4,0.6-0.5,1c-0.1,0.3-0.3,0.7-0.3,1.1
	c-1,0.1-1.9,0.3-2.7,0.5c-0.8,0.3-1.4,0.5-2,0.8C4.1,14.7,4,14.8,3.9,15c-0.1,0.2-0.1,0.3-0.1,0.5v0.8h5.2c0.1,0.4,0.2,0.7,0.3,1
	c0.1,0.3,0.3,0.7,0.5,1H1.7z"/>
</svg>
